<mxfile host="www.draw.io" modified="2020-02-04T16:15:40.081Z" agent="Mozilla/5.0 (Windows NT 10.0; Win64; x64) AppleWebKit/537.36 (KHTML, like Gecko) Chrome/79.0.3945.130 Safari/537.36" etag="thObPJ3imZCcCfkLGfUq" version="12.6.5" type="github">
  <diagram id="Q3YkI194S7esORd1z6mn" name="Page-1">
    <mxGraphModel dx="1422" dy="721" grid="1" gridSize="10" guides="1" tooltips="1" connect="1" arrows="1" fold="1" page="1" pageScale="1" pageWidth="850" pageHeight="1100" math="0" shadow="0">
      <root>
        <mxCell id="0"/>
        <mxCell id="1" parent="0"/>
        <mxCell id="HP0n1755PlnehS4s_hQY-1" value="2" style="whiteSpace=wrap;html=1;aspect=fixed;" vertex="1" parent="1">
          <mxGeometry x="160" y="50" width="40" height="40" as="geometry"/>
        </mxCell>
        <mxCell id="HP0n1755PlnehS4s_hQY-2" value="7" style="whiteSpace=wrap;html=1;aspect=fixed;" vertex="1" parent="1">
          <mxGeometry x="200" y="50" width="40" height="40" as="geometry"/>
        </mxCell>
        <mxCell id="HP0n1755PlnehS4s_hQY-3" value="11" style="whiteSpace=wrap;html=1;aspect=fixed;" vertex="1" parent="1">
          <mxGeometry x="240" y="50" width="40" height="40" as="geometry"/>
        </mxCell>
        <mxCell id="HP0n1755PlnehS4s_hQY-4" value="15" style="whiteSpace=wrap;html=1;aspect=fixed;" vertex="1" parent="1">
          <mxGeometry x="280" y="50" width="40" height="40" as="geometry"/>
        </mxCell>
        <mxCell id="HP0n1755PlnehS4s_hQY-5" value="9" style="whiteSpace=wrap;html=1;aspect=fixed;" vertex="1" parent="1">
          <mxGeometry x="160" y="150" width="80" height="80" as="geometry"/>
        </mxCell>
        <mxCell id="HP0n1755PlnehS4s_hQY-6" value="" style="endArrow=classic;html=1;exitX=0.5;exitY=1;exitDx=0;exitDy=0;entryX=0.25;entryY=0;entryDx=0;entryDy=0;" edge="1" parent="1" source="HP0n1755PlnehS4s_hQY-1" target="HP0n1755PlnehS4s_hQY-5">
          <mxGeometry width="50" height="50" relative="1" as="geometry">
            <mxPoint x="160" y="180" as="sourcePoint"/>
            <mxPoint x="200" y="148" as="targetPoint"/>
          </mxGeometry>
        </mxCell>
        <mxCell id="HP0n1755PlnehS4s_hQY-7" value="" style="endArrow=classic;html=1;entryX=0.5;entryY=0;entryDx=0;entryDy=0;exitX=0.5;exitY=1;exitDx=0;exitDy=0;" edge="1" parent="1" source="HP0n1755PlnehS4s_hQY-2" target="HP0n1755PlnehS4s_hQY-5">
          <mxGeometry width="50" height="50" relative="1" as="geometry">
            <mxPoint x="160" y="300" as="sourcePoint"/>
            <mxPoint x="210" y="250" as="targetPoint"/>
          </mxGeometry>
        </mxCell>
      </root>
    </mxGraphModel>
  </diagram>
</mxfile>
